<svg width="182" height="178" viewBox="0 0 182 178" fill="none" xmlns="http://www.w3.org/2000/svg">
<path d="M21.0767 100.534H44.1471L32.7543 80.5984L21.0767 100.534Z" fill="#37AEAB"/>
<path d="M179.152 23.9232C177.728 22.4992 175.164 22.4992 173.455 23.9232C170.607 26.7712 170.322 29.904 170.322 32.4672C170.322 33.3216 170.322 33.8912 170.607 34.4608C170.892 37.024 170.892 37.8784 170.038 38.7328C169.183 39.5872 168.329 39.5872 165.765 39.3024C165.196 39.3024 164.341 39.0176 163.772 39.0176C161.208 38.7328 158.075 39.3024 155.227 42.1504C152.379 44.9984 152.094 48.1312 152.094 50.6944C152.094 51.5488 152.094 52.1184 152.379 52.688C152.664 55.2512 152.664 56.1056 151.809 56.96C150.955 57.8144 150.385 57.8144 147.537 57.5296C146.967 57.5296 146.113 57.2448 145.543 57.2448C142.98 56.96 139.847 57.5296 136.998 60.3776C135.574 61.8016 135.574 64.3648 136.998 66.0736C137.853 66.928 138.707 67.2128 139.847 67.2128C140.986 67.2128 141.84 66.928 142.695 66.0736C143.549 65.2192 144.119 65.2192 146.967 65.504C149.815 65.7888 154.088 66.3584 157.79 62.656C161.493 58.9536 160.923 54.6816 160.638 51.8336C160.354 49.2704 160.354 48.416 161.208 47.5616C162.063 46.7072 162.917 46.7072 165.48 46.992C168.329 47.2768 172.601 47.8464 176.304 44.144C180.006 40.4416 179.437 36.1696 179.152 33.3216C178.867 30.7584 178.867 29.904 179.721 29.0496C180.861 27.9104 180.861 25.3472 179.152 23.9232Z" fill="#F56B9A"/>
<path d="M178.297 133.571L174.879 130.154L168.329 136.704L161.778 130.154L158.36 133.571L154.657 137.274L161.208 143.824L154.657 150.09L161.778 157.21L168.329 150.659L174.879 157.21L182 150.09L175.449 143.824L182 137.274L178.297 133.571Z" fill="#BB6AC9"/>
<path d="M9.11424 172.019H14.241H19.0829V162.906H28.482V157.779V152.938H19.0829V143.824H9.11424V152.938H0V162.906H9.11424V172.019Z" fill="#BB6AC9"/>
<path d="M123.327 5.696L116.776 12.2464L110.225 5.696L103.39 12.816L109.656 19.3664L103.39 25.9168L110.225 33.0368L116.776 26.4864L123.327 33.0368L130.448 25.9168L123.897 19.3664L130.448 12.816L123.327 5.696Z" fill="#BB6AC9"/>
<path d="M68.9264 15.9488C73.1987 15.9488 76.9014 12.5312 76.9014 7.9744C76.9014 3.4176 73.4836 0 68.9264 0C64.6541 0 60.9515 3.4176 60.9515 7.9744C60.9515 12.5312 64.6541 15.9488 68.9264 15.9488Z" fill="#37AEAB"/>
<path d="M156.366 90.2816C152.094 90.2816 148.391 93.6992 148.391 98.256C148.391 102.528 151.809 106.23 156.366 106.23C160.639 106.23 164.341 102.813 164.341 98.256C164.341 93.6992 160.639 90.2816 156.366 90.2816Z" fill="#37AEAB"/>
<path d="M16.5196 41.296C24.4945 41.296 30.7606 35.0304 30.7606 27.056C30.7606 19.0816 24.4945 12.816 16.5196 12.816C8.54461 12.816 2.27856 19.0816 2.27856 27.056C2.27856 35.0304 8.54461 41.296 16.5196 41.296ZM16.5196 20.7904C19.9374 20.7904 22.7856 23.6384 22.7856 27.056C22.7856 30.4736 19.9374 33.3216 16.5196 33.3216C13.1017 33.3216 10.2535 30.4736 10.2535 27.056C10.2535 23.6384 13.1017 20.7904 16.5196 20.7904Z" fill="#F39440"/>
<path d="M61.806 121.894C65.2238 133.286 75.7621 141.83 87.7246 141.83C102.535 141.83 114.782 129.584 114.782 114.774C114.782 100.819 102.82 91.136 93.9906 81.7376C87.7246 74.9024 81.4585 68.0672 75.1925 61.232C73.4836 67.4976 71.7747 73.7632 70.0657 80.0288C67.7872 87.7184 65.5086 95.6928 63.2301 103.382C61.2363 109.363 59.8122 115.059 61.806 121.894ZM79.18 76.896L96.2692 95.6928L72.0595 101.674L79.18 76.896ZM69.2113 110.787L102.535 102.528C105.099 105.946 106.808 109.933 106.808 114.49C106.808 125.027 98.2629 133.571 87.7246 133.571C77.1862 133.571 68.6416 125.027 68.6416 114.49C68.6416 113.35 68.9265 111.926 69.2113 110.787Z" fill="white"/>
<path d="M128.169 178C128.169 161.197 114.498 147.242 97.4084 147.242H77.471C60.6667 147.242 46.7105 160.912 46.7105 178H54.6854C54.6854 165.469 64.939 155.216 77.471 155.216H97.4084C109.941 155.216 120.194 165.469 120.194 178H128.169Z" fill="white"/>
</svg>
